# xmcd
#
# Track frame offsets: 
#        150
#        15319
#        31689
#        48201
#        64915
#        83939
#        101393
#        114936
#        131826
#        151883
#        169751
#        181589
#        198456
#        212493
#        227958
#        240867
#        256341
#        271290
#        286163
#        303191
#
# Disc length: 4190 seconds
#
# Revision: 0
# Processed by: cddbd v1.5.2PL0 Copyright (c) Steve Scherf et al.
# Submitted via: ExactAudioCopy v1.1
#
DISCID=f6105c14
DTITLE=Various Artist - JOE - Summer All The Way - CD 2
DYEAR=2018
DGENRE=Pop
TTITLE0=Shakira Feat. Freshlyground - Waka Waka (This Time For Africa)
TTITLE1=Righeira - Vamos A La Playa
TTITLE2=Rob De Nijs - Het Werd Zomer
TTITLE3=T-Spoon - Sex On The Beach
TTITLE4=Miami Sound Machine - Conga!
TTITLE5=Gibson Brothers - Que Sera Mi Vida (If You Should Go)
TTITLE6=Omi - Cheerleader (Felix Jaehn Remix)
TTITLE7=Lorca - Ritmo De La Noche
TTITLE8=Joe Dassin - L'Eté Indien
TTITLE9=Jennifer Lopez - Let's Get Loud
TTITLE10=The Lovin' Spoonful - Summer In The City
TTITLE11=Crystal Waters - Gypsy Woman (La Da Dee La Da Da)
TTITLE12=Safri Duo - Played-A-Live (The Bongo Song)
TTITLE13=Sailor - La Cumbia
TTITLE14=Raymond Van Het Groenewoud - Cha Cha Cha
TTITLE15=Owen Paul - My Favourite Waste Of Time
TTITLE16=Klingande - Jubel
TTITLE17=Tom Browne - Funkin' For Jamaica (N.Y.)
TTITLE18=Johan Verminnen - 'k Voel Me Goed
TTITLE19=Paco Paco - Taka Takata
EXTD=
EXTT0=
EXTT1=
EXTT2=
EXTT3=
EXTT4=
EXTT5=
EXTT6=
EXTT7=
EXTT8=
EXTT9=
EXTT10=
EXTT11=
EXTT12=
EXTT13=
EXTT14=
EXTT15=
EXTT16=
EXTT17=
EXTT18=
EXTT19=
PLAYORDER=
